<?xml version="1.0" encoding="utf-8"?>
<!-- Generator: Adobe Illustrator 18.0.0, SVG Export Plug-In . SVG Version: 6.00 Build 0)  -->
<!DOCTYPE svg PUBLIC "-//W3C//DTD SVG 1.1//EN" "http://www.w3.org/Graphics/SVG/1.1/DTD/svg11.dtd">
<svg version="1.1" id="Layer_1" xmlns="http://www.w3.org/2000/svg" xmlns:xlink="http://www.w3.org/1999/xlink" x="0px" y="0px"
	 viewBox="0 0 358.8 112.7" enable-background="new 0 0 358.8 112.7" xml:space="preserve">
<g>
	<g>
		<g>
			<path fill="#999999" d="M132.5,57.6c0-5.1,0-6-0.1-7.1c-0.1-1.1-0.3-1.6-1.4-1.9c-0.3-0.1-0.8-0.1-1.1-0.1
				c-0.1,0-0.3-0.1-0.3-0.2c0-0.2,0.2-0.3,0.5-0.3c1.5,0,3.4,0.1,3.7,0.1c0.7,0,2.6-0.1,4.1-0.1c4.1,0,5.6,1.4,6.1,1.9
				c0.7,0.7,1.6,2.2,1.6,3.9c0,4.7-3.4,7.8-8.1,7.8c-0.2,0-0.5,0-0.7,0c-0.2,0-0.4-0.1-0.4-0.2c0-0.3,0.2-0.3,0.9-0.3
				c3.2,0,5.7-2.3,5.7-5.3c0-1.1-0.1-3.3-1.8-5c-1.7-1.8-3.7-1.6-4.5-1.6c-0.6,0-1.1,0.1-1.4,0.2c-0.2,0.1-0.3,0.3-0.3,0.6v13.5
				c0,3.1,0,5.7,0.2,7.1c0.1,1,0.3,1.7,1.3,1.8c0.5,0.1,1.2,0.1,1.5,0.1c0.2,0,0.3,0.1,0.3,0.2c0,0.2-0.2,0.3-0.5,0.3
				c-1.8,0-3.9-0.1-4-0.1c-0.1,0-2.2,0.1-3.1,0.1c-0.4,0-0.5-0.1-0.5-0.3c0-0.1,0.1-0.2,0.3-0.2c0.3,0,0.7-0.1,1-0.1
				c0.7-0.1,0.8-0.8,1-1.8c0.2-1.4,0.2-4,0.2-7.1V57.6z"/>
			<path fill="#999999" d="M155.5,52.3c0.4-0.9,0.5-1.1,0.7-1.1c0.3,0,0.4,0.4,0.7,1c0.5,1.2,5.1,12.7,6.9,16.9c1,2.5,1.8,2.9,2.5,3
				c0.4,0.1,0.9,0.2,1.1,0.2c0.2,0,0.4,0.1,0.4,0.2c0,0.2-0.3,0.2-0.7,0.2c-0.4,0-2.6,0-4.6-0.1c-0.6,0-1,0-1-0.2
				c0-0.1,0.1-0.1,0.2-0.2c0.2-0.1,0.5-0.3,0.3-0.8l-2.6-6.4c-0.1-0.1-0.1-0.2-0.3-0.2h-6.6c-0.1,0-0.2,0.1-0.3,0.2l-1.6,4.5
				c-0.3,0.7-0.4,1.4-0.4,1.9c0,0.6,0.5,0.8,1,0.8h0.3c0.2,0,0.3,0.1,0.3,0.2c0,0.2-0.2,0.2-0.4,0.2c-0.7,0-2.3-0.1-2.6-0.1
				c-0.3,0-1.7,0.1-2.9,0.1c-0.4,0-0.6-0.1-0.6-0.2c0-0.1,0.1-0.2,0.3-0.2c0.2,0,0.6,0,0.9-0.1c1.3-0.2,1.9-1.1,2.4-2.6L155.5,52.3z
				 M158.7,63.9c0.1,0,0.1-0.1,0.1-0.2l-2.8-7.6c-0.2-0.4-0.3-0.4-0.5,0l-2.7,7.6c0,0.1,0,0.2,0.1,0.2H158.7z"/>
			<path fill="#999999" d="M171.8,70.2c-2.8-2.4-3.5-5.6-3.5-8.3c0-1.9,0.7-5.1,3.2-7.6c1.7-1.7,4.4-3,8.8-3c1.1,0,2.8,0.1,4.2,0.3
				c1.1,0.2,2,0.4,2.9,0.4c0.3,0,0.4,0.1,0.4,0.3c0,0.2-0.1,0.6-0.1,1.6c0,0.9,0,2.5-0.1,2.9c0,0.4-0.2,0.6-0.3,0.6
				c-0.2,0-0.2-0.2-0.2-0.6c0-1.1-0.5-2.2-1.2-2.8c-1-0.9-3.1-1.5-5.7-1.5c-3.7,0-5.5,1-6.5,1.9c-2.1,2-2.6,4.5-2.6,7.3
				c0,5.3,4.2,10.1,10.4,10.1c2.2,0,3.6-0.2,4.7-1.3c0.6-0.6,1-1.8,1.1-2.3c0.1-0.3,0.1-0.4,0.3-0.4c0.1,0,0.3,0.2,0.3,0.4
				c0,0.2-0.4,2.6-0.7,3.6c-0.2,0.5-0.2,0.6-0.7,0.8c-1.2,0.5-3.3,0.6-5.2,0.6C176.9,73.2,174,72.2,171.8,70.2z"/>
			<path fill="#999999" d="M197.3,64.8c0,2.7,0,4.9,0.1,6c0.1,0.8,0.2,1.3,1,1.5c0.4,0.1,1,0.1,1.3,0.1c0.2,0,0.2,0.1,0.2,0.2
				c0,0.1-0.1,0.2-0.5,0.2c-1.6,0-3.5-0.1-3.6-0.1c-0.2,0-2,0.1-2.8,0.1c-0.3,0-0.5-0.1-0.5-0.2c0-0.1,0.1-0.2,0.2-0.2
				c0.3,0,0.6-0.1,0.9-0.1c0.6-0.1,0.7-0.7,0.8-1.5c0.1-1.1,0.2-3.3,0.2-6v-4.9c0-4.3,0-5.1-0.1-6c-0.1-1-0.3-1.4-0.9-1.5
				c-0.3-0.1-0.7-0.1-0.9-0.1c-0.1,0-0.2-0.1-0.2-0.2c0-0.2,0.1-0.2,0.5-0.2c0.9,0,2.8,0.1,2.9,0.1c0.1,0,2-0.1,2.9-0.1
				c0.3,0,0.5,0.1,0.5,0.2c0,0.1-0.1,0.2-0.2,0.2c-0.2,0-0.4,0-0.7,0.1c-0.8,0.2-1,0.6-1,1.5c0,0.9,0,1.7,0,6V64.8z"/>
			<path fill="#999999" d="M206.8,59.8c0-4.3,0-5.1-0.1-6c-0.1-1-0.2-1.4-1.2-1.5c-0.2,0-0.7-0.1-1-0.1c-0.1,0-0.2-0.1-0.2-0.2
				c0-0.2,0.1-0.2,0.5-0.2c1.3,0,3.1,0.1,3.3,0.1c0.6,0,6.8,0,7.5,0c0.6,0,1,0,1.3-0.1c0.2,0,0.3-0.2,0.4-0.2c0.1,0,0.2,0.1,0.2,0.3
				c0,0.2-0.1,0.5-0.2,1.3c0,0.3-0.1,1.5-0.1,1.8c0,0.1-0.1,0.3-0.3,0.3c-0.1,0-0.2-0.1-0.2-0.3c0-0.2-0.1-0.7-0.3-1
				c-0.2-0.4-0.9-0.8-2-0.8l-4.7-0.1c-0.2,0-0.2,0.1-0.2,0.3v7.6c0,0.2,0,0.3,0.2,0.3l3.9,0c0.5,0,0.9,0,1.3,0
				c0.7-0.1,1.1-0.2,1.3-0.5c0.1-0.2,0.3-0.3,0.4-0.3c0.1,0,0.2,0.1,0.2,0.2c0,0.2-0.2,0.6-0.3,1.5c-0.1,0.6-0.1,1.7-0.1,1.9
				c0,0.3-0.1,0.6-0.3,0.6c-0.2,0-0.2-0.1-0.2-0.3c0-0.3-0.1-0.7-0.2-1c-0.1-0.4-0.6-0.8-1.5-0.9c-0.7-0.1-4.1-0.1-4.6-0.1
				c-0.2,0-0.2,0.1-0.2,0.3v2.2c0,2.8,0,4.9,0.1,6c0.1,0.8,0.3,1.3,1.1,1.5c0.4,0.1,1,0.1,1.3,0.1c0.2,0,0.2,0.1,0.2,0.2
				c0,0.1-0.1,0.2-0.5,0.2c-1.6,0-3.5-0.1-3.6-0.1c-0.2,0-2,0.1-2.8,0.1c-0.3,0-0.5-0.1-0.5-0.2c0-0.1,0.1-0.2,0.2-0.2
				c0.3,0,0.6-0.1,0.9-0.1c0.6-0.1,0.6-0.7,0.8-1.5c0.2-1.1,0.2-3.3,0.2-6V59.8z"/>
			<path fill="#999999" d="M227,64.8c0,2.7,0,4.9,0.1,6c0.1,0.8,0.2,1.3,1,1.5c0.4,0.1,1,0.1,1.3,0.1c0.2,0,0.2,0.1,0.2,0.2
				c0,0.1-0.1,0.2-0.5,0.2c-1.6,0-3.5-0.1-3.6-0.1c-0.2,0-2,0.1-2.8,0.1c-0.3,0-0.5-0.1-0.5-0.2c0-0.1,0.1-0.2,0.2-0.2
				c0.3,0,0.6-0.1,0.9-0.1c0.6-0.1,0.7-0.7,0.8-1.5c0.1-1.1,0.2-3.3,0.2-6v-4.9c0-4.3,0-5.1-0.1-6c-0.1-1-0.3-1.4-0.9-1.5
				c-0.3-0.1-0.7-0.1-0.9-0.1c-0.1,0-0.2-0.1-0.2-0.2c0-0.2,0.1-0.2,0.5-0.2c0.9,0,2.7,0.1,2.9,0.1c0.1,0,2-0.1,2.9-0.1
				c0.3,0,0.5,0.1,0.5,0.2c0,0.1-0.1,0.2-0.2,0.2c-0.2,0-0.4,0-0.7,0.1c-0.8,0.2-0.9,0.6-1,1.5c0,0.9,0,1.7,0,6V64.8z"/>
			<path fill="#999999" d="M236.8,70.2c-2.8-2.4-3.5-5.6-3.5-8.3c0-1.9,0.7-5.1,3.2-7.6c1.7-1.7,4.4-3,8.8-3c1.1,0,2.8,0.1,4.2,0.3
				c1.1,0.2,2,0.4,2.9,0.4c0.3,0,0.4,0.1,0.4,0.3c0,0.2-0.1,0.6-0.1,1.6c0,0.9,0,2.5-0.1,2.9c0,0.4-0.2,0.6-0.3,0.6
				c-0.2,0-0.2-0.2-0.2-0.6c0-1.1-0.5-2.2-1.2-2.8c-1-0.9-3.1-1.5-5.7-1.5c-3.7,0-5.5,1-6.5,1.9c-2.1,2-2.6,4.5-2.6,7.3
				c0,5.3,4.2,10.1,10.4,10.1c2.2,0,3.6-0.2,4.7-1.3c0.6-0.6,1-1.8,1.1-2.3c0.1-0.3,0.1-0.4,0.3-0.4c0.1,0,0.3,0.2,0.3,0.4
				c0,0.2-0.4,2.6-0.7,3.6c-0.2,0.5-0.2,0.6-0.7,0.8c-1.2,0.5-3.3,0.6-5.2,0.6C242,73.2,239.1,72.2,236.8,70.2z"/>
		</g>
		<g>
			<path fill="#999999" d="M260.4,71.6c-0.5-0.2-0.6-0.3-0.6-1c0-1.5,0.1-3.2,0.2-3.7c0-0.4,0.1-0.7,0.4-0.7c0.3,0,0.3,0.3,0.3,0.5
				c0,0.4,0.1,1,0.3,1.4c0.6,2.1,2.8,2.7,4.6,2.7c2.5,0,4-1.6,4-3.5c0-1.2-0.3-2.4-2.8-3.9l-1.7-1c-3.4-2-4.5-3.9-4.5-6.3
				c0-3.4,3.3-5.6,7.3-5.6c1.9,0,3.3,0.3,4.1,0.5c0.3,0.1,0.4,0.2,0.4,0.4c0,0.4-0.1,1.1-0.1,3.3c0,0.6-0.1,0.9-0.4,0.9
				c-0.2,0-0.3-0.2-0.3-0.5c0-0.3-0.1-1.1-0.8-1.8c-0.4-0.5-1.3-1.3-3.2-1.3c-2.1,0-3.9,1.1-3.9,3c0,1.2,0.5,2.2,3,3.7l1.2,0.7
				c3.8,2.1,5,4.2,5,6.7c0,2.1-0.8,3.7-2.9,5.2c-1.4,1-3.3,1.1-4.8,1.1C263.4,72.3,261.6,72.2,260.4,71.6z"/>
			<path fill="#999999" d="M276.5,61.4c0-4.8,3.3-10.9,12.1-10.9c7.3,0,11.8,4,11.8,10.4c0,6.4-4.7,11.4-12.1,11.4
				C279.9,72.3,276.5,66.4,276.5,61.4z M296.1,61.9c0-6.2-3.7-10-8.4-10c-3.2,0-7,1.7-7,8.6c0,5.7,3.3,10.3,8.7,10.3
				C291.5,70.8,296.1,69.9,296.1,61.9z"/>
			<path fill="#999999" d="M309.6,64c0,2.7,0,4.7,0.2,5.8c0.1,0.8,0.3,1.3,1.1,1.5c0.4,0.1,1,0.1,1.4,0.1c0.4,0,0.5,0.2,0.5,0.3
				c0,0.2-0.2,0.3-0.6,0.3c-1.8,0-3.9-0.1-4.6-0.1c-0.8,0-2.6,0.1-3.7,0.1c-0.4,0-0.6-0.1-0.6-0.3c0-0.1,0.1-0.3,0.4-0.3
				c0.4,0,0.8,0,1-0.1c0.6-0.1,0.8-0.7,0.9-1.5c0.1-1.2,0.1-3.2,0.1-5.9V59c0-4.2,0-5,0-5.9c-0.1-1-0.3-1.3-1.2-1.5
				c-0.2-0.1-0.7-0.1-1.1-0.1c-0.3,0-0.5-0.1-0.5-0.3s0.2-0.3,0.7-0.3c1.5,0,3.3,0.1,4.1,0.1c1.1,0,7.5,0,8.2,0
				c0.5,0,0.9-0.1,1.2-0.1c0.2,0,0.3-0.2,0.5-0.2c0.1,0,0.2,0.1,0.2,0.3c0,0.2-0.1,0.5-0.2,1.2c0,0.3-0.1,1.9-0.1,2.3
				c0,0.2-0.1,0.6-0.3,0.6c-0.2,0-0.4-0.1-0.4-0.5c0-0.2,0-0.7-0.2-1.1c-0.2-0.4-0.8-0.8-1.8-0.9l-4.8-0.1c-0.2,0-0.3,0.1-0.3,0.4
				v6.7c0,0.2,0,0.3,0.2,0.3l4,0c0.5,0,0.9,0,1.3,0c0.5,0,1-0.1,1.2-0.5c0.2-0.2,0.2-0.3,0.4-0.3c0.1,0,0.2,0.1,0.2,0.3
				c0,0.2-0.1,0.9-0.2,1.8c-0.1,0.6-0.1,1.8-0.1,2c0,0.2,0,0.6-0.3,0.6c-0.2,0-0.3-0.2-0.3-0.4c0-0.2-0.1-0.5-0.2-0.9
				c-0.1-0.4-0.5-1-1.4-1c-0.7-0.1-4.1-0.1-4.6-0.1c-0.1,0-0.2,0-0.2,0.2V64z"/>
			<path fill="#999999" d="M328.1,52.6l-4.3,0.1c-1.7,0-2.4,0.2-2.8,0.9c-0.3,0.4-0.4,0.8-0.5,0.9c-0.1,0.2-0.1,0.4-0.3,0.4
				c-0.2,0-0.3-0.2-0.3-0.5c0-0.5,0.6-3.1,0.6-3.4c0.1-0.4,0.2-0.5,0.3-0.5c0.2,0,0.5,0.2,1.2,0.3c0.9,0.1,1.9,0.1,2.9,0.1h11.7
				c0.9,0,1.5-0.1,2-0.1c0.5-0.1,0.7-0.1,0.8-0.1c0.2,0,0.2,0.2,0.2,0.6c0,0.6-0.1,2.7-0.1,3.4c0,0.3-0.1,0.5-0.3,0.5
				c-0.2,0-0.3-0.1-0.3-0.6l0-0.3c-0.1-0.7-0.8-1.6-3.4-1.6l-3.6-0.1v11.3c0,2.6,0,4.8,0.2,6c0.1,0.8,0.3,1.3,1.1,1.4
				c0.4,0.1,1,0.1,1.5,0.1c0.3,0,0.5,0.2,0.5,0.3c0,0.2-0.2,0.3-0.6,0.3c-1.9,0-3.8-0.1-4.7-0.1c-0.7,0-2.6,0.1-3.8,0.1
				c-0.4,0-0.6-0.1-0.6-0.3c0-0.1,0.1-0.3,0.5-0.3c0.4,0,0.8,0,1-0.1c0.6-0.1,0.8-0.7,0.9-1.5c0.1-1.2,0.1-3.4,0.1-5.9V52.6z"/>
		</g>
	</g>
	<g>
		<g>
			<path fill="#999999" d="M132.5,57.6c0-5.1,0-6-0.1-7.1c-0.1-1.1-0.3-1.6-1.4-1.9c-0.3-0.1-0.8-0.1-1.1-0.1
				c-0.1,0-0.3-0.1-0.3-0.2c0-0.2,0.2-0.3,0.5-0.3c1.5,0,3.4,0.1,3.7,0.1c0.7,0,2.6-0.1,4.1-0.1c4.1,0,5.6,1.4,6.1,1.9
				c0.7,0.7,1.6,2.2,1.6,3.9c0,4.7-3.4,7.8-8.1,7.8c-0.2,0-0.5,0-0.7,0c-0.2,0-0.4-0.1-0.4-0.2c0-0.3,0.2-0.3,0.9-0.3
				c3.2,0,5.7-2.3,5.7-5.3c0-1.1-0.1-3.3-1.8-5c-1.7-1.8-3.7-1.6-4.5-1.6c-0.6,0-1.1,0.1-1.4,0.2c-0.2,0.1-0.3,0.3-0.3,0.6v13.5
				c0,3.1,0,5.7,0.2,7.1c0.1,1,0.3,1.7,1.3,1.8c0.5,0.1,1.2,0.1,1.5,0.1c0.2,0,0.3,0.1,0.3,0.2c0,0.2-0.2,0.3-0.5,0.3
				c-1.8,0-3.9-0.1-4-0.1c-0.1,0-2.2,0.1-3.1,0.1c-0.4,0-0.5-0.1-0.5-0.3c0-0.1,0.1-0.2,0.3-0.2c0.3,0,0.7-0.1,1-0.1
				c0.7-0.1,0.8-0.8,1-1.8c0.2-1.4,0.2-4,0.2-7.1V57.6z"/>
			<path fill="#999999" d="M155.5,52.3c0.4-0.9,0.5-1.1,0.7-1.1c0.3,0,0.4,0.4,0.7,1c0.5,1.2,5.1,12.7,6.9,16.9c1,2.5,1.8,2.9,2.5,3
				c0.4,0.1,0.9,0.2,1.1,0.2c0.2,0,0.4,0.1,0.4,0.2c0,0.2-0.3,0.2-0.7,0.2c-0.4,0-2.6,0-4.6-0.1c-0.6,0-1,0-1-0.2
				c0-0.1,0.1-0.1,0.2-0.2c0.2-0.1,0.5-0.3,0.3-0.8l-2.6-6.4c-0.1-0.1-0.1-0.2-0.3-0.2h-6.6c-0.1,0-0.2,0.1-0.3,0.2l-1.6,4.5
				c-0.3,0.7-0.4,1.4-0.4,1.9c0,0.6,0.5,0.8,1,0.8h0.3c0.2,0,0.3,0.1,0.3,0.2c0,0.2-0.2,0.2-0.4,0.2c-0.7,0-2.3-0.1-2.6-0.1
				c-0.3,0-1.7,0.1-2.9,0.1c-0.4,0-0.6-0.1-0.6-0.2c0-0.1,0.1-0.2,0.3-0.2c0.2,0,0.6,0,0.9-0.1c1.3-0.2,1.9-1.1,2.4-2.6L155.5,52.3z
				 M158.7,63.9c0.1,0,0.1-0.1,0.1-0.2l-2.8-7.6c-0.2-0.4-0.3-0.4-0.5,0l-2.7,7.6c0,0.1,0,0.2,0.1,0.2H158.7z"/>
			<path fill="#999999" d="M171.8,70.2c-2.8-2.4-3.5-5.6-3.5-8.3c0-1.9,0.7-5.1,3.2-7.6c1.7-1.7,4.4-3,8.8-3c1.1,0,2.8,0.1,4.2,0.3
				c1.1,0.2,2,0.4,2.9,0.4c0.3,0,0.4,0.1,0.4,0.3c0,0.2-0.1,0.6-0.1,1.6c0,0.9,0,2.5-0.1,2.9c0,0.4-0.2,0.6-0.3,0.6
				c-0.2,0-0.2-0.2-0.2-0.6c0-1.1-0.5-2.2-1.2-2.8c-1-0.9-3.1-1.5-5.7-1.5c-3.7,0-5.5,1-6.5,1.9c-2.1,2-2.6,4.5-2.6,7.3
				c0,5.3,4.2,10.1,10.4,10.1c2.2,0,3.6-0.2,4.7-1.3c0.6-0.6,1-1.8,1.1-2.3c0.1-0.3,0.1-0.4,0.3-0.4c0.1,0,0.3,0.2,0.3,0.4
				c0,0.2-0.4,2.6-0.7,3.6c-0.2,0.5-0.2,0.6-0.7,0.8c-1.2,0.5-3.3,0.6-5.2,0.6C176.9,73.2,174,72.2,171.8,70.2z"/>
			<path fill="#999999" d="M197.3,64.8c0,2.7,0,4.9,0.1,6c0.1,0.8,0.2,1.3,1,1.5c0.4,0.1,1,0.1,1.3,0.1c0.2,0,0.2,0.1,0.2,0.2
				c0,0.1-0.1,0.2-0.5,0.2c-1.6,0-3.5-0.1-3.6-0.1c-0.2,0-2,0.1-2.8,0.1c-0.3,0-0.5-0.1-0.5-0.2c0-0.1,0.1-0.2,0.2-0.2
				c0.3,0,0.6-0.1,0.9-0.1c0.6-0.1,0.7-0.7,0.8-1.5c0.1-1.1,0.2-3.3,0.2-6v-4.9c0-4.3,0-5.1-0.1-6c-0.1-1-0.3-1.4-0.9-1.5
				c-0.3-0.1-0.7-0.1-0.9-0.1c-0.1,0-0.2-0.1-0.2-0.2c0-0.2,0.1-0.2,0.5-0.2c0.9,0,2.8,0.1,2.9,0.1c0.1,0,2-0.1,2.9-0.1
				c0.3,0,0.5,0.1,0.5,0.2c0,0.1-0.1,0.2-0.2,0.2c-0.2,0-0.4,0-0.7,0.1c-0.8,0.2-1,0.6-1,1.5c0,0.9,0,1.7,0,6V64.8z"/>
			<path fill="#999999" d="M206.8,59.8c0-4.3,0-5.1-0.1-6c-0.1-1-0.2-1.4-1.2-1.5c-0.2,0-0.7-0.1-1-0.1c-0.1,0-0.2-0.1-0.2-0.2
				c0-0.2,0.1-0.2,0.5-0.2c1.3,0,3.1,0.1,3.3,0.1c0.6,0,6.8,0,7.5,0c0.6,0,1,0,1.3-0.1c0.2,0,0.3-0.2,0.4-0.2c0.1,0,0.2,0.1,0.2,0.3
				c0,0.2-0.1,0.5-0.2,1.3c0,0.3-0.1,1.5-0.1,1.8c0,0.1-0.1,0.3-0.3,0.3c-0.1,0-0.2-0.1-0.2-0.3c0-0.2-0.1-0.7-0.3-1
				c-0.2-0.4-0.9-0.8-2-0.8l-4.7-0.1c-0.2,0-0.2,0.1-0.2,0.3v7.6c0,0.2,0,0.3,0.2,0.3l3.9,0c0.5,0,0.9,0,1.3,0
				c0.7-0.1,1.1-0.2,1.3-0.5c0.1-0.2,0.3-0.3,0.4-0.3c0.1,0,0.2,0.1,0.2,0.2c0,0.2-0.2,0.6-0.3,1.5c-0.1,0.6-0.1,1.7-0.1,1.9
				c0,0.3-0.1,0.6-0.3,0.6c-0.2,0-0.2-0.1-0.2-0.3c0-0.3-0.1-0.7-0.2-1c-0.1-0.4-0.6-0.8-1.5-0.9c-0.7-0.1-4.1-0.1-4.6-0.1
				c-0.2,0-0.2,0.1-0.2,0.3v2.2c0,2.8,0,4.9,0.1,6c0.1,0.8,0.3,1.3,1.1,1.5c0.4,0.1,1,0.1,1.3,0.1c0.2,0,0.2,0.1,0.2,0.2
				c0,0.1-0.1,0.2-0.5,0.2c-1.6,0-3.5-0.1-3.6-0.1c-0.2,0-2,0.1-2.8,0.1c-0.3,0-0.5-0.1-0.5-0.2c0-0.1,0.1-0.2,0.2-0.2
				c0.3,0,0.6-0.1,0.9-0.1c0.6-0.1,0.6-0.7,0.8-1.5c0.2-1.1,0.2-3.3,0.2-6V59.8z"/>
			<path fill="#999999" d="M227,64.8c0,2.7,0,4.9,0.1,6c0.1,0.8,0.2,1.3,1,1.5c0.4,0.1,1,0.1,1.3,0.1c0.2,0,0.2,0.1,0.2,0.2
				c0,0.1-0.1,0.2-0.5,0.2c-1.6,0-3.5-0.1-3.6-0.1c-0.2,0-2,0.1-2.8,0.1c-0.3,0-0.5-0.1-0.5-0.2c0-0.1,0.1-0.2,0.2-0.2
				c0.3,0,0.6-0.1,0.9-0.1c0.6-0.1,0.7-0.7,0.8-1.5c0.1-1.1,0.2-3.3,0.2-6v-4.9c0-4.3,0-5.1-0.1-6c-0.1-1-0.3-1.4-0.9-1.5
				c-0.3-0.1-0.7-0.1-0.9-0.1c-0.1,0-0.2-0.1-0.2-0.2c0-0.2,0.1-0.2,0.5-0.2c0.9,0,2.7,0.1,2.9,0.1c0.1,0,2-0.1,2.9-0.1
				c0.3,0,0.5,0.1,0.5,0.2c0,0.1-0.1,0.2-0.2,0.2c-0.2,0-0.4,0-0.7,0.1c-0.8,0.2-0.9,0.6-1,1.5c0,0.9,0,1.7,0,6V64.8z"/>
			<path fill="#999999" d="M236.8,70.2c-2.8-2.4-3.5-5.6-3.5-8.3c0-1.9,0.7-5.1,3.2-7.6c1.7-1.7,4.4-3,8.8-3c1.1,0,2.8,0.1,4.2,0.3
				c1.1,0.2,2,0.4,2.9,0.4c0.3,0,0.4,0.1,0.4,0.3c0,0.2-0.1,0.6-0.1,1.6c0,0.9,0,2.5-0.1,2.9c0,0.4-0.2,0.6-0.3,0.6
				c-0.2,0-0.2-0.2-0.2-0.6c0-1.1-0.5-2.2-1.2-2.8c-1-0.9-3.1-1.5-5.7-1.5c-3.7,0-5.5,1-6.5,1.9c-2.1,2-2.6,4.5-2.6,7.3
				c0,5.3,4.2,10.1,10.4,10.1c2.2,0,3.6-0.2,4.7-1.3c0.6-0.6,1-1.8,1.1-2.3c0.1-0.3,0.1-0.4,0.3-0.4c0.1,0,0.3,0.2,0.3,0.4
				c0,0.2-0.4,2.6-0.7,3.6c-0.2,0.5-0.2,0.6-0.7,0.8c-1.2,0.5-3.3,0.6-5.2,0.6C242,73.2,239.1,72.2,236.8,70.2z"/>
		</g>
		<g>
			<path fill="#999999" d="M260.4,71.6c-0.5-0.2-0.6-0.3-0.6-1c0-1.5,0.1-3.2,0.2-3.7c0-0.4,0.1-0.7,0.4-0.7c0.3,0,0.3,0.3,0.3,0.5
				c0,0.4,0.1,1,0.3,1.4c0.6,2.1,2.8,2.7,4.6,2.7c2.5,0,4-1.6,4-3.5c0-1.2-0.3-2.4-2.8-3.9l-1.7-1c-3.4-2-4.5-3.9-4.5-6.3
				c0-3.4,3.3-5.6,7.3-5.6c1.9,0,3.3,0.3,4.1,0.5c0.3,0.1,0.4,0.2,0.4,0.4c0,0.4-0.1,1.1-0.1,3.3c0,0.6-0.1,0.9-0.4,0.9
				c-0.2,0-0.3-0.2-0.3-0.5c0-0.3-0.1-1.1-0.8-1.8c-0.4-0.5-1.3-1.3-3.2-1.3c-2.1,0-3.9,1.1-3.9,3c0,1.2,0.5,2.2,3,3.7l1.2,0.7
				c3.8,2.1,5,4.2,5,6.7c0,2.1-0.8,3.7-2.9,5.2c-1.4,1-3.3,1.1-4.8,1.1C263.4,72.3,261.6,72.2,260.4,71.6z"/>
			<path fill="#999999" d="M276.5,61.4c0-4.8,3.3-10.9,12.1-10.9c7.3,0,11.8,4,11.8,10.4c0,6.4-4.7,11.4-12.1,11.4
				C279.9,72.3,276.5,66.4,276.5,61.4z M296.1,61.9c0-6.2-3.7-10-8.4-10c-3.2,0-7,1.7-7,8.6c0,5.7,3.3,10.3,8.7,10.3
				C291.5,70.8,296.1,69.9,296.1,61.9z"/>
			<path fill="#999999" d="M309.6,64c0,2.7,0,4.7,0.2,5.8c0.1,0.8,0.3,1.3,1.1,1.5c0.4,0.1,1,0.1,1.4,0.1c0.4,0,0.5,0.2,0.5,0.3
				c0,0.2-0.2,0.3-0.6,0.3c-1.8,0-3.9-0.1-4.6-0.1c-0.8,0-2.6,0.1-3.7,0.1c-0.4,0-0.6-0.1-0.6-0.3c0-0.1,0.1-0.3,0.4-0.3
				c0.4,0,0.8,0,1-0.1c0.6-0.1,0.8-0.7,0.9-1.5c0.1-1.2,0.1-3.2,0.1-5.9V59c0-4.2,0-5,0-5.9c-0.1-1-0.3-1.3-1.2-1.5
				c-0.2-0.1-0.7-0.1-1.1-0.1c-0.3,0-0.5-0.1-0.5-0.3s0.2-0.3,0.7-0.3c1.5,0,3.3,0.1,4.1,0.1c1.1,0,7.5,0,8.2,0
				c0.5,0,0.9-0.1,1.2-0.1c0.2,0,0.3-0.2,0.5-0.2c0.1,0,0.2,0.1,0.2,0.3c0,0.2-0.1,0.5-0.2,1.2c0,0.3-0.1,1.9-0.1,2.3
				c0,0.2-0.1,0.6-0.3,0.6c-0.2,0-0.4-0.1-0.4-0.5c0-0.2,0-0.7-0.2-1.1c-0.2-0.4-0.8-0.8-1.8-0.9l-4.8-0.1c-0.2,0-0.3,0.1-0.3,0.4
				v6.7c0,0.2,0,0.3,0.2,0.3l4,0c0.5,0,0.9,0,1.3,0c0.5,0,1-0.1,1.2-0.5c0.2-0.2,0.2-0.3,0.4-0.3c0.1,0,0.2,0.1,0.2,0.3
				c0,0.2-0.1,0.9-0.2,1.8c-0.1,0.6-0.1,1.8-0.1,2c0,0.2,0,0.6-0.3,0.6c-0.2,0-0.3-0.2-0.3-0.4c0-0.2-0.1-0.5-0.2-0.9
				c-0.1-0.4-0.5-1-1.4-1c-0.7-0.1-4.1-0.1-4.6-0.1c-0.1,0-0.2,0-0.2,0.2V64z"/>
			<path fill="#999999" d="M328.1,52.6l-4.3,0.1c-1.7,0-2.4,0.2-2.8,0.9c-0.3,0.4-0.4,0.8-0.5,0.9c-0.1,0.2-0.1,0.4-0.3,0.4
				c-0.2,0-0.3-0.2-0.3-0.5c0-0.5,0.6-3.1,0.6-3.4c0.1-0.4,0.2-0.5,0.3-0.5c0.2,0,0.5,0.2,1.2,0.3c0.9,0.1,1.9,0.1,2.9,0.1h11.7
				c0.9,0,1.5-0.1,2-0.1c0.5-0.1,0.7-0.1,0.8-0.1c0.2,0,0.2,0.2,0.2,0.6c0,0.6-0.1,2.7-0.1,3.4c0,0.3-0.1,0.5-0.3,0.5
				c-0.2,0-0.3-0.1-0.3-0.6l0-0.3c-0.1-0.7-0.8-1.6-3.4-1.6l-3.6-0.1v11.3c0,2.6,0,4.8,0.2,6c0.1,0.8,0.3,1.3,1.1,1.4
				c0.4,0.1,1,0.1,1.5,0.1c0.3,0,0.5,0.2,0.5,0.3c0,0.2-0.2,0.3-0.6,0.3c-1.9,0-3.8-0.1-4.7-0.1c-0.7,0-2.6,0.1-3.8,0.1
				c-0.4,0-0.6-0.1-0.6-0.3c0-0.1,0.1-0.3,0.5-0.3c0.4,0,0.8,0,1-0.1c0.6-0.1,0.8-0.7,0.9-1.5c0.1-1.2,0.1-3.4,0.1-5.9V52.6z"/>
		</g>
	</g>
</g>
<g>
	<g>
		<path fill="#808080" d="M111.3,43.2c-3.8,3.6-10.6,5.7-15,4.8c-7.4-1.6-12.2-6.9-18.4-10.9c-0.5-0.3-1.1-0.7-1.6-1
			c-1.2-0.4-2.4-0.8-3.6-1.3c-3.4-1.5-6.1-3.8-9.9-4.4C56,29.3,49.5,31,45.5,33.9c-3.2,4-5.6,8.7-6.9,13.8c7.4-11.6,17.8-7.4,28,0
			c16.9,12.3,33.7,23.8,47.3,14.8c0.2-1.6,0.3-3.2,0.3-4.8C114.1,52.3,113.3,48.4,111.3,43.2z"/>
	</g>
	<g>
		<path fill="#999999" d="M41.8,72c1.5,3.8,3.6,7.3,6.2,10.4c9.3-1.7,18.5,6.8,27.7,13.9c0.7,0,1.3,0.1,2,0.1
			c8.7,0,16.7-2.9,23.1-7.7C68.7,91.1,63.4,60.9,41.8,72z"/>
	</g>
	<g>
		<path fill="#E6E6E6" d="M84.8,47.8c10.3-7.5,20.6-11.6,28,0c-2.6-9.5-8.7-17.6-16.9-22.7c-3.1-0.2-6.7,0.1-11,0.8
			c-14.3,2.6-28,14.9-39.2,7.6c-5.4,6.6-8.6,15.1-8.6,24.3c0,1.6,0.1,3.2,0.3,4.8C51.1,71.5,67.9,60.1,84.8,47.8z"/>
		<path fill="#E6E6E6" d="M60.5,81.8c-3.8-0.3-9.8-1.6-15.6-3.7C51.7,89,63.9,96.3,77.7,96.3c0.7,0,1.3,0,2-0.1
			c9.2-7.1,18.4-15.6,27.7-13.9c2.6-3.1,4.6-6.6,6.2-10.4C105.2,60.2,78.5,83.4,60.5,81.8z"/>
		<path fill="#CCCCCC" d="M66.1,27.5c6.4-0.9,12.7-5.3,19.1-6.7c-3-0.7-6.1-1.2-9.3-1.2c-7.3,0-14.1,2-19.9,5.6
			C58.6,27.5,62.4,28.1,66.1,27.5z"/>
	</g>
</g>
</svg>
